<svg width="73" height="16" viewBox="0 0 73 16" fill="none" xmlns="http://www.w3.org/2000/svg">
<g opacity="0.75">
<path d="M5.38584 14.0623V7.69341H6.75252C9.27562 7.69341 11.0709 8.60092 11.0709 11.6178C11.0709 14.1768 9.98726 15.3868 7.58547 15.3868C6.42096 15.3868 5.38584 15.3459 5.38584 14.0623ZM5.38584 7.08022V1.76597C5.38584 0.964742 5.51523 0.915687 6.55844 0.915687C9.4697 0.915687 10.7717 1.5534 10.7717 3.76903C10.7717 5.7721 9.67187 7.03117 7.41564 7.07205H5.38584V7.08022ZM1.92467 2.68166V13.3183C1.92467 15.207 1.73867 15.3868 0 15.4032V16H7.56121C10.618 16 14.0549 15.4522 14.0549 11.7568C14.0549 9.07512 11.6208 7.93051 9.48588 7.49719V7.45631C11.3539 7.10475 13.1735 5.96014 13.1735 3.74451C13.1816 0.482371 9.24327 0 6.67974 0H0V0.596832C1.73867 0.621359 1.92467 0.793051 1.92467 2.68166ZM17.1037 8.03679C17.1037 7.77517 16.8611 7.52172 15.7208 7.45631V6.94124C17.0228 6.70414 18.2925 6.29535 19.5702 5.84568V14.3812C19.5702 15.0516 19.6996 15.1742 20.7994 15.1742V15.6893H15.7774V15.1742C16.9662 15.1742 17.0956 15.0434 17.0956 14.3812V8.03679H17.1037ZM19.8937 1.6188C19.8937 2.54267 19.1173 3.23761 18.3167 3.23761C17.5161 3.23761 16.7398 2.54267 16.7398 1.6188C16.7398 0.694941 17.5161 0 18.3167 0C19.1173 0 19.8937 0.694941 19.8937 1.6188ZM27.9562 7.01482C28.0048 7.07205 28.0452 7.13746 28.0775 7.21921L31.8703 15.9428H32.4525L35.5821 8.20848L38.7765 15.9428H39.4153L42.3751 8.52734C42.7147 7.64435 43.0787 6.7859 44.0895 6.61421V6.09913H40.8548V6.61421H40.9033C41.526 6.72867 42.0759 6.8186 42.0759 7.21921C42.0759 7.3909 41.9465 7.70976 41.7767 8.14308L40.0623 12.8687L38.0729 7.90598C38.0405 7.82422 37.992 7.70976 37.9516 7.5953C37.8626 7.3909 37.7737 7.17833 37.7737 7.10475C37.7737 6.82678 38.3074 6.67144 39.1242 6.61421V6.09913H33.5119V6.61421C34.7573 6.72049 35.1374 7.12928 35.1374 7.49719C35.1374 7.71794 35.0161 8.01226 34.8624 8.38017C34.8382 8.44558 34.8058 8.51916 34.7735 8.59274L33.0995 12.7869L31.0859 8.06132C31.0373 7.94686 30.9888 7.8324 30.9484 7.73429C30.8513 7.50537 30.7624 7.30915 30.7624 7.16198C30.7624 6.88401 31.3204 6.62238 32.218 6.62238V6.10731H25.045V2.46091L21.6485 6.34441V6.85948H22.7645V13.9806C22.7645 15.1497 23.7187 15.9918 25.1663 15.9918C26.0639 15.9918 27.4468 15.3623 27.9562 14.6101V13.8334C27.4872 14.2831 26.9211 14.8227 26.2499 14.8227C25.1501 14.8227 25.0531 14.0705 25.0531 13.5473V6.86765H27.3983C27.3983 6.86765 27.8754 6.90036 27.9724 7.02299L27.9562 7.01482ZM44.971 7.45631C46.1193 7.52172 46.3538 7.77517 46.3538 8.03679V14.3812C46.3538 15.0516 46.2244 15.1742 45.0357 15.1742V15.6893H50.0576V15.1742C48.9578 15.1742 48.8284 15.0434 48.8284 14.3812V5.84568C47.5507 6.29535 46.273 6.70414 44.9791 6.94124V7.45631H44.971ZM47.5911 3.24578C48.3917 3.24578 49.1681 2.55084 49.1681 1.62698C49.1681 0.703117 48.3917 0.00817578 47.5911 0.00817578C46.7905 0.00817578 46.0142 0.703117 46.0142 1.62698C46.0142 2.55084 46.7905 3.24578 47.5911 3.24578ZM58.9127 6.63873C57.6835 6.18906 56.5675 5.84568 55.4515 5.84568C53.7452 5.84568 51.5537 6.72867 51.5537 8.7072C51.5537 10.2524 52.9527 11.0537 54.3598 11.6995C55.7588 12.37 57.166 12.9014 57.166 13.9397C57.166 14.7982 56.6403 15.4849 55.7184 15.4849C53.5916 15.4849 52.5403 13.7435 52.144 11.9121L51.6184 12.002L51.8125 15.2478C52.6858 15.6321 54.2628 16 55.2089 16C57.3115 16 59.3251 15.3296 59.3251 12.9423C59.3251 11.2826 57.8533 10.5549 56.5028 9.88452C54.8369 9.06694 53.5916 8.51099 53.5916 7.77517C53.5916 6.95759 54.3355 6.35258 55.1038 6.35258C56.8991 6.35258 57.8452 8.02862 58.3871 9.51661L58.9127 9.47573V6.63873ZM69.741 12.2555L70.0483 12.5743C69.1749 14.6837 67.695 15.9918 65.2851 15.9918C62.1717 15.9918 60.4816 14.0542 60.4816 11.0864C60.4816 8.11855 62.6165 5.83751 65.5924 5.83751C67.9457 5.83751 70.0079 7.57895 70.0079 9.9908H62.9157C62.8106 12.0593 64.1126 14.0542 66.3769 14.0542C67.881 14.0542 68.8595 13.4083 69.7491 12.2473L69.741 12.2555ZM62.9238 9.54113H66.8783C67.2826 9.54113 67.4039 9.47573 67.4039 9.04241C67.4039 7.75882 66.4335 6.76955 65.2851 6.76955C63.506 6.76955 62.9966 8.27389 62.9157 9.54113H62.9238Z" fill="white"/>
<path d="M71.2856 7.30097C72.2398 7.30097 73 6.50792 73 5.52683C73 4.54574 72.2398 3.75269 71.2856 3.75269C70.3313 3.75269 69.5712 4.54574 69.5712 5.52683C69.5712 6.50792 70.3394 7.30097 71.2856 7.30097ZM71.2856 6.84313C70.5739 6.84313 69.9998 6.25447 69.9998 5.51865C69.9998 4.78283 70.5739 4.19418 71.2856 4.19418C71.9972 4.19418 72.5714 4.78283 72.5714 5.51865C72.5714 6.25447 72.0053 6.84313 71.2856 6.84313ZM71.0106 6.3117V5.76393H71.2532L71.6091 6.3117H72.0943L71.6818 5.69852C71.8921 5.63311 72.0134 5.45325 72.0134 5.1998C72.0134 4.88912 71.7789 4.67655 71.4311 4.67655H70.6063V6.30353H71.0106V6.3117ZM71.0106 5.02811H71.3341C71.4958 5.02811 71.5767 5.10169 71.5767 5.2325C71.5767 5.36331 71.4958 5.4369 71.326 5.4369H71.0025V5.03628L71.0106 5.02811Z" fill="white"/>
</g>
</svg>
