<svg width="118" height="12" viewBox="0 0 118 12" fill="none" xmlns="http://www.w3.org/2000/svg">
<g opacity="0.75">
<path d="M118 11.9597H115.345L112.906 7.28859H110.173V11.9597H107.852V0.0604027H113.654C116.309 0.0604027 117.567 1.14765 117.567 3.6443C117.567 5.47651 116.761 6.6443 115.325 6.98658L118 11.9597ZM113.024 2.1745H110.173V5.1745H113.024C114.421 5.1745 115.109 4.87248 115.109 3.66443C115.109 2.45638 114.421 2.1745 113.024 2.1745ZM98.471 10.9128C97.3303 9.94631 96.76 8.35571 96.76 6.24161C96.76 2.03356 98.4317 0.0604027 102.031 0.0604027H105.944V2.13423H102.109C100.438 2.13423 99.5723 3.02013 99.4543 4.89262H105.944V6.98658H99.4543C99.4543 9.12081 100.261 9.90604 102.109 9.90604H105.944V12H101.991C100.595 11.9597 99.5723 11.8188 98.471 10.9128ZM92.8857 11.9597H90.4863V2.13423H86.8873V0.0402685H96.5043V2.13423H92.8857V11.9597ZM86.14 11.9597L85.1173 9.12081H80.2597L79.2763 11.9597H76.7787L81.5183 0.0604027H84.0357L88.7753 11.9597H86.14ZM82.6787 2.43624L81.0463 7.02685H84.3503L82.6787 2.43624ZM71.9997 11.9597L69.6397 3.0604L67.555 11.9597H64.7033L60.9863 0.0604027H63.5233L66.0997 9.20134L68.263 0.0604027H71.036L73.5337 9.20134L75.933 0.0604027H78.3323L74.9103 11.9597H71.9997ZM52.1757 10.9128C51.035 9.94631 50.4647 8.35571 50.4647 6.24161C50.4647 2.03356 52.1363 0.0604027 55.7353 0.0604027H59.649V2.13423H55.814C54.1423 2.13423 53.277 3.02013 53.159 4.89262H59.6097V6.98658H53.1197C53.1197 9.12081 53.926 9.90604 55.7747 9.90604H59.6097V12H55.6567C54.2997 11.9597 53.2377 11.8188 52.1757 10.9128ZM40.474 10.9128C39.3333 9.94631 38.763 8.35571 38.763 6.24161C38.763 2.03356 40.4347 0.0604027 44.0337 0.0604027H49.088V2.11409H44.0337C42.1653 2.11409 41.3787 3.40268 41.3787 6.12081C41.3787 8.83893 42.1063 9.84564 44.0337 9.84564H46.669V7.04698H43.5223V4.95302H49.0683V12H44.014C42.6177 11.9597 41.5753 11.8792 40.415 10.9128H40.474ZM32.391 11.9597H27.2187V0.0604027H32.3123C35.9113 0.0604027 37.583 2.01342 37.583 6.24161C37.583 8.41611 37.0127 9.96644 35.872 10.9128C34.7313 11.8792 33.748 11.9597 32.3713 11.9597C32.3517 11.9597 32.391 11.9597 32.391 11.9597ZM32.273 2.09396H29.5393V9.86577H32.273C34.3577 9.86577 35.0067 8.89933 35.0067 5.97987C35.0067 3.0604 34.338 2.09396 32.273 2.09396ZM22.9313 0H25.37V11.8993H22.9313V0ZM19.057 11.8993L16.6183 7.22819H13.8257V11.8993H11.505V0H17.3067C19.9617 0 21.2203 1.08725 21.2203 3.58389C21.2203 5.41611 20.414 6.58389 18.9783 6.92618L21.7513 11.8993H19.057ZM16.7363 2.13423H13.865V5.13423H16.7167C18.113 5.13423 18.8013 4.83221 18.8013 3.62416C18.8013 2.41611 18.113 2.15436 16.6773 2.15436L16.7363 2.13423ZM6.11633 11.8993H0V0H5.70333C7.00133 0 7.94533 0.120805 8.555 0.543624C9.40067 1.20805 9.87267 2.25503 9.77433 3.34228C9.69567 4.42953 9.06633 5.39597 8.142 5.91946C9.22367 6.34228 9.912 7.44966 9.81367 8.63758C9.853 10.9329 8.63367 11.9396 6.09667 11.9396C6.11633 11.9597 6.11633 11.8993 6.11633 11.8993ZM5.76233 2.13423H2.32067V4.89262H5.76233C6.82433 4.89262 7.316 4.4698 7.316 3.52349C7.316 2.57718 6.82433 2.19463 5.76233 2.19463V2.13423ZM5.80167 6.98658H2.32067V9.78523H5.782C6.844 9.78523 7.33567 9.36242 7.33567 8.41611C7.33567 7.4698 6.80467 7.04698 5.782 7.04698C5.80167 7.02685 5.80167 6.98658 5.80167 6.98658Z" fill="white"/>
</g>
</svg>
