<svg width="89" height="16" viewBox="0 0 89 16" fill="none" xmlns="http://www.w3.org/2000/svg">
<g opacity="0.75">
<path d="M17.9626 4.47689C14.7107 4.47689 12.1944 6.92944 12.1944 10.2384C12.1944 13.5474 14.672 16 17.9626 16C21.2532 16 23.7695 13.5085 23.7695 10.2384C23.7695 6.96837 21.2919 4.47689 17.9626 4.47689ZM18.0013 13.5864C16.1431 13.5864 14.8269 12.146 14.8269 10.1995C14.8269 8.25304 16.1431 6.81265 18.0013 6.81265C19.8595 6.81265 21.2144 8.25304 21.2144 10.1995C21.2144 12.146 19.8208 13.5864 18.0013 13.5864ZM24.4663 6.96837H26.0535V15.7664H28.6472V4.67153H24.4663V6.96837ZM5.72945 6.85158C7.08438 6.85158 8.16833 7.6691 8.55546 8.91484H11.2653C10.7621 6.26764 8.59417 4.43796 5.72945 4.43796C2.51631 4.47689 0 6.92944 0 10.2384C0 13.5474 2.4776 16 5.76816 16C8.55546 16 10.7621 14.2092 11.2653 11.5231H8.55546C8.16833 12.7689 7.08438 13.6253 5.76816 13.6253C3.90996 13.6253 2.59374 12.1849 2.59374 10.2384C2.59374 8.29197 3.87125 6.85158 5.72945 6.85158ZM73.2827 9.14842L71.3858 8.87591C70.4954 8.75912 69.8373 8.44769 69.8373 7.74696C69.8373 6.96837 70.689 6.57908 71.8117 6.57908C73.0505 6.57908 73.8634 7.12409 74.0183 7.98054H76.4959C76.2249 5.76156 74.5215 4.43796 71.8891 4.43796C69.1792 4.43796 67.3597 5.83942 67.3597 7.82482C67.3597 9.69343 68.5211 10.8224 70.9213 11.1338L72.8182 11.4063C73.7473 11.5231 74.2505 11.9124 74.2505 12.5742C74.2505 13.4696 73.3602 13.82 72.1214 13.82C70.6116 13.82 69.7599 13.1971 69.605 12.2628H67.0887C67.321 14.4428 69.0244 15.9611 72.0826 15.9611C74.8699 15.9611 76.7669 14.6764 76.7669 12.4574C76.7669 10.5109 75.4119 9.49878 73.2827 9.14842ZM27.3697 0.116788C26.4406 0.116788 25.7051 0.817518 25.7051 1.75182C25.7051 2.68613 26.4019 3.38686 27.3697 3.38686C28.2988 3.38686 29.0344 2.68613 29.0344 1.75182C29.0344 0.817518 28.2988 0.116788 27.3697 0.116788ZM65.0757 8.48662C65.0757 6.07299 63.6046 4.47689 60.5463 4.47689C57.6429 4.47689 56.017 5.9562 55.6686 8.21411H58.2236C58.3397 7.31874 59.0365 6.61801 60.5076 6.61801C61.8238 6.61801 62.4432 7.20195 62.4432 7.90268C62.4432 8.83698 61.2819 9.07056 59.8108 9.22628C57.8365 9.45986 55.3976 10.1217 55.3976 12.691C55.3976 14.6764 56.8686 15.9611 59.2301 15.9611C61.0883 15.9611 62.211 15.1825 62.7916 13.9757C62.8691 15.0657 63.682 15.7664 64.8434 15.7664H66.3532V13.4696H65.0757V8.48662ZM62.5207 11.2506C62.5207 12.7299 61.2432 13.82 59.6559 13.82C58.6881 13.82 57.8752 13.4307 57.8752 12.5353C57.8752 11.4453 59.1914 11.1338 60.3915 11.017C61.5528 10.9002 62.1722 10.6667 62.5207 10.1606V11.2506ZM48.8939 4.47689C47.4615 4.47689 46.2614 5.06083 45.4097 6.07299V0H42.8547V15.7664H45.371V14.326C46.2227 15.3771 47.4615 16 48.8939 16C51.9909 16 54.3136 13.5474 54.3136 10.2384C54.3136 6.92944 51.9522 4.47689 48.8939 4.47689ZM48.5067 13.5864C46.6485 13.5864 45.3323 12.146 45.3323 10.1995C45.3323 8.25304 46.6873 6.81265 48.5455 6.81265C50.4037 6.81265 51.7199 8.25304 51.7199 10.1995C51.7199 12.1849 50.3649 13.5864 48.5067 13.5864ZM36.6994 4.47689C35.0348 4.47689 33.9508 5.17762 33.2927 6.11192V4.67153H30.7377V15.7664H33.2927V9.73236C33.2927 8.01946 34.3767 6.85158 35.9639 6.85158C37.435 6.85158 38.3641 7.90268 38.3641 9.42093V15.7664H40.9191V9.22628C40.9191 6.42336 39.4867 4.47689 36.6994 4.47689ZM89 9.88808C89 6.69586 86.6772 4.47689 83.5803 4.47689C80.2897 4.47689 77.8508 6.96837 77.8508 10.2384C77.8508 13.7032 80.4445 16 83.619 16C86.2901 16 88.3806 14.4039 88.9226 12.146H86.2514C85.8643 13.1192 84.9352 13.7032 83.6577 13.7032C81.993 13.7032 80.7542 12.691 80.4833 10.8613H89V9.88808ZM80.6381 9.03163C81.0639 7.47445 82.1866 6.73479 83.5415 6.73479C85.0126 6.73479 86.0966 7.55231 86.3676 9.03163H80.6381Z" fill="white"/>
</g>
</svg>
