<svg width="122" height="18" viewBox="0 0 122 18" fill="none" xmlns="http://www.w3.org/2000/svg">
<path opacity="0.75" d="M100.099 0C100.099 0 100.099 12.5006 100.099 12.5006C100.099 13.1182 100.423 13.479 100.756 13.7062C101.113 13.9459 101.638 14.0658 102.344 14.0658C102.792 14.0658 103.382 13.9177 103.382 13.9177C103.382 13.9177 103.382 12.7967 103.382 12.7967C103.205 12.8077 103.048 12.8179 102.874 12.8179C101.822 12.8179 101.667 12.4074 101.667 11.9506C101.667 11.9506 101.667 7.31283e-06 101.667 7.37709e-07L100.099 0ZM66.9941 0.12691C65.8127 0.12691 64.7447 0.496964 63.9865 1.16334C63.2501 1.81334 62.8427 2.71056 62.8427 3.68038C62.8427 4.74849 63.2756 5.58308 64.1771 6.23972C64.9722 6.81953 66.0239 7.1939 67.0365 7.55112C68.7967 8.17638 70.4465 8.74704 70.4465 10.3431C70.4465 11.0529 70.2047 11.6615 69.7476 12.0776C69.2449 12.5351 68.5217 12.7544 67.566 12.7544C65.8908 12.7544 64.6712 11.8281 63.9865 10.0259C63.9865 10.0259 62.4826 10.4277 62.4826 10.4277C62.8065 11.1586 63.3575 12.2135 64.1559 12.9236C65.0313 13.708 66.118 14.087 67.4813 14.087C69.0956 14.087 70.3211 13.6711 71.1243 12.839C71.9569 11.9728 72.141 10.8643 72.141 10.0893C72.141 8.97883 71.6709 8.12134 70.7219 7.44536C69.8933 6.85184 68.8211 6.4693 67.7778 6.11281C66.0778 5.53227 64.4556 4.97979 64.4736 3.55347C64.4796 2.88839 64.7106 2.37066 65.1302 2.0094C65.5579 1.64241 66.1674 1.45946 66.9517 1.45946C67.7756 1.45947 68.5102 1.68942 69.0698 2.13631C69.5844 2.54332 69.9589 3.14736 70.1288 3.82844L71.5903 3.63807C70.9491 1.4552 69.3821 0.12691 66.9941 0.12691ZM0 0.317274V13.8966H1.56736V1.48061L1.60972 1.52291L5.3375 13.8966H6.54479L10.2937 1.52291L10.3149 1.48061V13.8966H11.8823V0.317274H9.27708L5.95174 11.2315V11.2738L5.93055 11.2315L2.60521 0.317274H0ZM74.6191 0.592244V3.84959H73.1153V5.09753C73.1153 5.09753 74.6191 5.09754 74.6191 5.09753C74.6191 5.09753 74.6191 12.0772 74.6191 12.5006C74.6191 13.1182 74.9006 13.479 75.2333 13.7062C75.5914 13.9459 76.1144 14.0658 76.8219 14.0658C77.2696 14.0658 77.8809 13.9177 77.8809 13.9177C77.8809 13.9177 77.8809 12.7967 77.8809 12.7967C77.7069 12.8077 77.5247 12.8179 77.3514 12.8179C76.298 12.8179 76.1864 12.4074 76.1865 11.9506C76.1865 11.9506 76.1864 5.09754 76.1865 5.09753H77.8809V3.84959H76.1865V0.592244H74.6191ZM18.2365 3.65922C16.9167 3.65922 15.7981 4.19027 15.017 5.18214C14.2921 6.10781 13.8944 7.41547 13.8944 8.86251C13.8945 10.3109 14.2921 11.6162 15.017 12.5429C15.7981 13.5374 16.9167 14.0658 18.2365 14.0658C19.5617 14.0658 20.6769 13.5374 21.4559 12.5429C22.1809 11.6162 22.5785 10.3109 22.5785 8.86251C22.5785 7.41547 22.1809 6.10781 21.4559 5.18214C20.6769 4.19027 19.5617 3.65922 18.2365 3.65922ZM108.656 3.68038C107.986 3.68038 107.363 3.80335 106.835 4.03995C106.317 4.27284 105.858 4.62347 105.5 5.07638C104.79 5.96528 104.378 7.28494 104.378 8.88367C104.378 10.663 104.89 12.0207 105.818 12.9236C106.797 13.8781 108.045 14.0658 108.91 14.0658C111.159 14.0658 112.263 12.8507 112.723 11.7391C112.723 11.7391 111.473 11.1257 111.473 11.1257C111.169 11.8025 110.471 12.839 108.91 12.839C108.018 12.839 107.289 12.4743 106.771 11.8026C106.271 11.1526 105.99 10.2529 105.988 9.17979C105.988 9.1798 112.85 9.17979 112.85 9.17979C112.85 9.1798 112.85 8.22797 112.85 8.22797C112.85 6.58381 112.412 5.35771 111.6 4.61105C110.91 3.9768 109.941 3.68038 108.656 3.68038ZM34.2913 3.70153C32.523 3.70153 30.0128 4.88973 30.0128 8.88367C30.0128 12.7616 32.5152 14.0658 34.2066 14.0658C35.1938 14.0658 36.0908 13.5196 36.7059 12.7333C36.7059 12.7333 36.7906 12.691 36.7906 12.691C36.7906 12.691 36.7906 14.5946 36.7906 14.5946C36.7906 15.9297 35.6335 16.7521 34.3972 16.7521C33.1953 16.7521 32.1312 16.5229 31.2625 16.1175C31.2625 16.1175 31.2625 17.4712 31.2625 17.4712C31.9941 17.7843 33.1846 17.9788 34.2066 17.9788C36.9889 17.9789 38.3156 16.4497 38.3156 14.235C38.3156 14.235 38.3156 3.89189 38.3156 3.89189H37.1507L36.8118 4.94947C36.2368 4.20126 35.484 3.70153 34.2913 3.70153ZM44.4156 3.70153C42.1896 3.70153 41.1356 5.03318 40.6878 5.85899L41.9375 6.51469C42.1129 6.04282 42.7442 4.94947 44.4368 4.94947C45.7714 4.94947 46.449 5.53768 46.449 6.70505V7.06463C46.449 7.06463 46.4599 7.17393 46.4278 7.21269C46.3782 7.27519 46.2377 7.32629 45.8983 7.36075C44.0296 7.56895 42.7876 7.87543 41.874 8.46064C40.8821 9.09726 40.2642 9.98859 40.2642 11.2103C40.2642 12.0782 40.6851 12.819 41.2385 13.3467C41.7532 13.8326 42.4545 14.0854 43.2295 14.1081C44.8793 14.161 45.9653 13.4752 46.4913 12.6698C46.5321 13.2232 46.7307 13.5394 47.1691 13.7697C47.5808 13.9892 48.256 13.9456 48.5458 13.8754C48.5458 13.8754 48.5458 12.8179 48.5458 12.8179C48.1964 12.8004 47.974 12.6345 47.974 12.2045C47.9739 12.2045 47.974 7.36075 47.974 7.36075C47.9739 7.36075 47.974 6.72621 47.974 6.72621C47.9739 5.72661 47.5811 4.90669 46.8302 4.37838C46.2111 3.93963 45.346 3.70153 44.4156 3.70153H44.4156ZM55.1965 3.70153C54.1765 3.70154 53.1325 4.22923 52.2524 5.22444V3.8919H50.6851V13.9177H52.2524C52.2524 13.9177 52.2524 6.47239 52.2524 6.47239C52.7858 5.90327 53.9812 4.94947 55.0694 4.94947C56.1604 4.94947 56.6368 5.48387 56.6368 6.6839C56.6368 6.6839 56.6368 13.9177 56.6368 13.9177H58.2042V6.6416C58.2042 4.47543 56.6615 3.70153 55.1965 3.70153ZM83.5573 3.70153C81.3325 3.70153 80.2787 5.03318 79.8295 5.85899C79.8295 5.85899 81.0792 6.51469 81.0792 6.51469C81.2552 6.04282 81.8858 4.94947 83.5785 4.94947C84.9129 4.94947 85.5906 5.53768 85.5906 6.70505C85.5906 6.70505 85.5906 7.06463 85.5906 7.06463C85.5906 7.06463 85.5797 7.17393 85.5483 7.21269C85.4994 7.27519 85.3806 7.32629 85.0399 7.36075C83.1713 7.56858 81.9292 7.87543 81.0156 8.46064C80.0244 9.09726 79.4059 9.98859 79.4059 11.2103C79.4059 12.0782 79.826 12.8186 80.3802 13.3467C80.8949 13.8326 81.5968 14.0854 82.3712 14.1081C84.0196 14.161 85.1069 13.4752 85.633 12.6698C85.6745 13.223 85.8716 13.5394 86.3108 13.7697C86.7217 13.9892 87.3971 13.9456 87.6875 13.8754C87.6875 13.8754 87.6875 12.8179 87.6875 12.8179C87.3388 12.8004 87.1156 12.6345 87.1156 12.2045C87.1156 12.2045 87.1156 7.36075 87.1156 7.36075C87.1156 7.36075 87.1156 6.72621 87.1156 6.72621C87.1156 5.72661 86.7024 4.90669 85.9507 4.37838C85.331 3.93963 84.487 3.70153 83.5573 3.70153ZM94.3382 3.70153C93.3154 3.70154 92.2741 4.22923 91.3941 5.22444V3.8919H89.8267V13.9177H91.3941C91.3941 13.9177 91.3941 6.47239 91.3941 6.47239C91.9282 5.90294 93.1215 4.94947 94.2111 4.94947C95.3 4.94947 95.7785 5.48387 95.7785 6.6839V13.9177H97.3458V6.6416C97.3458 4.47543 95.8032 3.70153 94.3382 3.70153ZM29.4198 3.74383C27.8296 3.74383 26.8871 4.35953 26.0733 5.81669V5.71093V3.89189H24.5059V13.8966H26.0733C26.0733 13.8966 26.0733 8.22797 26.0733 8.22797C26.4602 6.1687 27.5519 5.20329 29.4198 5.20329V3.74383ZM113.909 3.87074L117.404 13.812C117.404 13.812 117.404 13.8966 117.404 13.8966C117.195 14.8494 116.591 16.0255 116.048 16.3925C115.569 16.7173 115.05 16.7521 114.65 16.7521C114.458 16.7521 114.059 16.687 113.888 16.6463C113.888 16.6463 113.888 17.8519 113.888 17.8519C114.105 17.9051 114.605 18 114.926 18C115.673 18 116.303 17.8133 116.832 17.4289C117.466 16.9688 118.168 15.7695 118.505 14.7427C118.505 14.7427 122 3.87074 122 3.87074H120.475L118.188 11.5699L118.166 11.7391L118.124 11.5699L115.434 3.87074H113.909ZM18.2365 4.90717C19.9238 4.90717 20.9264 6.38617 20.9264 8.86251C20.9264 11.3395 19.9238 12.8179 18.2365 12.8179C16.5518 12.8179 15.5465 11.3395 15.5465 8.86251C15.5465 6.38617 16.5518 4.90717 18.2365 4.90717ZM34.3972 4.92832C35.2815 4.92832 36.0578 5.30988 36.7906 6.21857C36.7906 6.21857 36.7906 10.9988 36.7906 10.9988C36.385 12.1518 35.2232 12.8179 34.3972 12.8179C32.7809 12.8179 31.6649 11.8128 31.6649 8.79906C31.665 6.26495 32.6664 4.92832 34.3972 4.92832ZM108.699 4.92832C110.494 4.92832 111.297 5.87658 111.304 7.93184C111.304 7.93184 106.03 7.93184 106.03 7.93184C106.166 5.87825 107.028 4.92832 108.699 4.92832ZM46.4913 8.46064C46.4913 8.46064 46.4913 10.9988 46.4913 10.9988C46.4191 11.8751 44.7793 12.9357 43.4413 12.8602C42.7031 12.8197 41.9919 12.2261 41.9163 11.2526C41.7938 9.62585 43.0179 8.95043 45.75 8.651C45.9401 8.63363 46.3079 8.56625 46.4913 8.46064ZM85.633 8.46064V10.9988C85.5607 11.8747 83.9209 12.9357 82.583 12.8602C81.8461 12.8194 81.1315 12.2258 81.058 11.2526C80.9335 9.62585 82.159 8.95043 84.8917 8.651C85.0804 8.63363 85.4509 8.56625 85.633 8.46064Z" fill="white"/>
</svg>
