<svg width="160" height="19" viewBox="0 0 160 19" fill="none" xmlns="http://www.w3.org/2000/svg">
<g opacity="0.75" clip-path="url(#clip0_2_301)">
<path d="M1.01799 7.12978C2.00789 6.75352 2.99779 6.37939 3.98768 6.00313L3.95742 5.78205C2.60442 5.55885 1.2471 5.34202 0 4.43858C1.23845 4.65753 2.36235 5.03379 3.52731 4.41732C2.71681 3.79022 1.69233 3.47986 1.1909 2.49776L3.25931 3.26303L2.07705 1.24782L2.18296 1.17554L3.48841 1.97695L3.56406 1.87492L2.84001 0.0595211L2.95024 0L4.11304 1.23932C4.32485 0.867308 4.47398 0.533565 4.70093 0.261468C4.75496 0.197695 5.06835 0.344372 5.43362 0.440031C4.80899 0.71638 4.78522 0.990602 5.15049 1.31797C5.20236 1.36473 5.22613 1.4774 5.21316 1.54968C4.94516 2.97181 5.83779 4.38968 7.23834 4.80421C7.3918 4.84885 7.53445 4.92963 7.68142 4.9934C8.41195 5.30163 8.87016 5.76717 8.72103 6.62811C8.67132 6.92146 8.73832 7.24245 9.13601 7.22969C9.50992 7.21906 9.66337 6.9746 9.5834 6.57496L9.26352 6.68763C9.26352 6.50694 9.27001 6.35176 9.26352 6.1987C9.24839 5.93298 9.30243 5.70128 9.14033 5.39729C8.99336 5.11882 9.30891 4.60439 9.43211 4.15373L8.8961 4.12822L8.86368 4.00917C9.19868 3.94328 9.53585 3.87738 10.0394 3.77959C9.64392 3.69456 9.40185 3.64142 9.15978 3.5904V3.49049C9.49047 3.52025 9.83196 3.49899 10.141 3.59253C10.5841 3.72645 11.0012 3.94328 11.4292 4.12609C11.9177 4.33441 12.0279 4.69367 11.8463 5.19322C11.3816 4.74256 11.0401 5.22086 10.569 5.30376C10.8564 5.90322 11.105 6.4623 11.3989 7.00011C11.4638 7.11915 11.7123 7.2467 11.8226 7.21269C11.9695 7.16592 12.1857 6.93847 12.164 6.83005C11.8939 5.45894 12.914 5.10181 13.8629 4.70642C15.1921 4.1516 15.8708 3.0292 15.7151 1.58794C15.7043 1.48378 15.7303 1.33497 15.7994 1.26695C16.1474 0.922578 16.102 0.69087 15.5876 0.444283C15.8038 0.378384 16.1496 0.199821 16.2144 0.269971C16.4435 0.518684 16.5797 0.854554 16.7915 1.23081C17.133 0.865182 17.535 0.43578 17.937 0.00637727L18.0624 0.0616469C17.8095 0.67599 17.5566 1.29033 17.2346 2.07049L18.7194 1.15641L18.8253 1.1968C18.4557 1.84941 18.0861 2.49989 17.669 3.23965C18.352 2.99519 18.9896 2.76561 19.6445 2.53177C19.5234 3.04621 19.0631 3.3013 18.6589 3.58615C18.2547 3.871 17.8203 4.11121 17.3318 4.41094C18.486 5.01253 19.5861 4.65115 20.7835 4.4896C19.6034 5.39729 18.2742 5.53759 16.865 5.79268C17.8116 6.57496 18.9074 6.75778 20.0594 7.10215C19.5321 7.16379 19.1084 7.22757 18.6805 7.25733C18.2331 7.28921 17.7814 7.31898 17.3361 7.29347C16.8931 7.26796 16.4565 7.17017 15.9205 7.08939C16.1798 7.72287 16.6424 8.0885 17.1395 8.41161C17.6258 8.72835 18.1358 9.0132 18.7194 9.36183C17.3124 9.37883 16.1842 8.84527 15.1164 8.17778C15.2353 8.77299 15.3931 9.32994 15.4493 9.89752C15.5055 10.4672 15.4623 11.0454 15.4623 11.6598C14.9284 10.7669 14.4118 9.90177 13.8953 9.03871L13.7072 9.09823C13.5819 10.159 13.4544 11.2219 13.329 12.2826H13.182C13.1518 11.3494 13.0394 10.4396 12.4364 9.63605C11.8744 10.582 11.9328 11.5322 12.2786 12.5143C11.5373 11.985 11.3298 11.2006 11.1525 10.3928C10.7246 10.7967 10.5776 11.5684 10.9213 12.1466C11.3082 12.797 11.7923 13.3923 12.2397 14.0087C12.337 14.1426 12.4602 14.2617 12.5207 14.4445L11.8398 14.047C12.0128 14.5657 12.1619 15.01 12.311 15.4542L12.2138 15.5201L11.4681 14.7038L11.3708 14.7549C11.4875 15.2395 11.6064 15.7242 11.7231 16.2089L11.6475 16.245L10.8997 15.0291C10.7549 15.8603 10.6273 16.583 10.4998 17.3058L10.409 17.3228C10.2837 16.5958 10.1605 15.8688 10.0113 15.01C9.71308 15.4946 9.4775 15.8751 9.24407 16.2535L9.1641 16.228L9.59421 14.5423C9.19436 14.9717 8.8961 15.2906 8.49625 15.72C8.70806 15.1035 8.87016 14.6337 9.06252 14.0725L8.40331 14.3999C8.91123 13.7196 9.36943 13.1223 9.80602 12.5101C10.275 11.8553 10.2664 10.9625 9.77144 10.3652C9.55098 11.2219 9.33053 12.053 8.55244 12.6185C8.92852 11.6385 9.06036 10.6692 8.47896 9.67219C7.80678 10.446 7.78949 11.3643 7.71816 12.2677L7.57551 12.289C7.45232 11.2282 7.32696 10.1654 7.19944 9.06422C6.32626 9.72533 6.01502 10.7117 5.4574 11.6768C5.3061 10.429 5.40768 9.32144 5.88318 8.10976C4.71605 8.86865 3.6008 9.33844 2.19809 9.38733C3.27876 8.70072 4.39834 8.24793 4.96029 7.20844H0.981251L1.01799 7.13191V7.12978Z" fill="white"/>
<path d="M27.2437 1.51574C28.1926 1.51574 29.1436 1.51574 30.0924 1.51574C30.2912 1.51574 30.4879 1.51574 30.6868 1.51574C32.0981 1.51362 32.0916 1.51574 32.5758 2.85072C33.4165 5.16567 34.2681 7.47636 35.1154 9.78918C35.1456 9.86996 35.1867 9.94649 35.2688 10.1229C35.6968 8.92825 36.0966 7.81861 36.4921 6.70896C37.0649 5.10615 37.6441 3.50758 38.1974 1.90051C38.312 1.56676 38.4698 1.48598 38.8156 1.49449C40.0584 1.52425 41.3011 1.51149 42.5417 1.51787C42.7146 1.51787 42.8854 1.53275 43.0583 1.53913L43.1015 1.68155C42.9718 1.73895 42.8486 1.82823 42.7125 1.84949C41.5021 2.03868 41.1585 2.35967 41.2428 3.56497C41.3703 5.38037 41.5929 7.18939 41.7874 9.00053C41.9149 10.1952 42.0446 11.392 42.2111 12.5824C42.358 13.6368 42.5655 13.8196 43.6138 14.0194C43.7283 14.0407 43.8342 14.1045 43.9445 14.1491L43.912 14.2894H37.8214L37.7673 14.1937C37.8862 14.1342 38.0008 14.0386 38.1261 14.0173C39.2284 13.843 39.518 13.5348 39.4164 12.4761C39.129 9.53622 38.8199 6.59843 38.5173 3.66063C38.5108 3.59473 38.4741 3.53309 38.4049 3.33114C37.0152 7.12349 35.6708 10.7947 34.3243 14.4658L34.1406 14.4807C32.7184 10.7862 31.2963 7.0916 29.8741 3.39704L29.7423 3.41192C29.6623 4.10704 29.5802 4.80004 29.5067 5.49516C29.2646 7.74633 29.0312 9.99751 28.7848 12.2466C28.6594 13.3966 28.9707 13.8047 30.1248 13.9642C30.4058 14.0024 30.6846 14.0492 30.9656 14.0981C30.9807 14.1002 30.985 14.1597 31.0153 14.2682H26.0485C26.1955 14.1576 26.2755 14.0534 26.3727 14.0301C27.5247 13.7707 27.8035 13.5156 27.9613 12.355C28.2747 10.0421 28.5578 7.72508 28.8453 5.408C28.9274 4.74264 29.0117 4.07303 29.029 3.40342C29.0571 2.36817 28.7027 1.99829 27.676 1.85161C27.5139 1.82823 27.3583 1.76021 27.1984 1.71344L27.2459 1.50937L27.2437 1.51574Z" fill="white"/>
<path d="M136.204 8.87721C136.057 7.47208 135.467 6.31142 134.103 5.6992C132.767 5.09549 131.539 5.46537 130.398 6.2519C130.189 6.39858 129.983 6.54951 129.709 6.74508V5.38672C128.628 5.80762 127.588 6.21151 126.454 6.65367C127.441 7.46783 127.251 8.53071 127.251 9.54895C127.251 12.2061 127.251 14.8633 127.251 17.5205C127.249 18.0796 127.325 18.6854 126.549 18.8555C126.538 18.8576 126.54 18.9193 126.532 19.0001H131.133C131.142 18.932 131.153 18.8619 131.161 18.7939C130.934 18.7683 130.709 18.7237 130.482 18.7237C129.988 18.7258 129.683 18.5558 129.717 18.0116C129.726 17.8713 129.696 17.7289 129.696 17.5886C129.694 16.5002 129.694 15.4097 129.694 14.3085C131.224 14.6104 132.026 14.6082 132.888 14.3043C135.291 13.4582 136.452 11.2198 136.204 8.87721ZM133.054 12.9884C132.702 13.6623 132.103 14.047 131.293 13.9748C130.454 13.9025 130.042 13.3498 129.836 12.6185C129.756 12.3316 129.715 12.0276 129.713 11.73C129.7 10.1931 129.707 8.65613 129.707 7.08307C131.181 6.49636 132.579 7.01292 133.227 8.44356C133.915 9.96772 133.828 11.511 133.054 12.9884Z" fill="white"/>
<path d="M117.67 10.6756C117.434 11.9362 117.089 13.0841 115.744 13.7771C112.617 15.3905 108.32 14.4127 106.535 11.5748C104.252 7.94612 106.126 3.06963 110.321 1.7219C112.403 1.05442 114.435 1.20109 116.41 2.10029C116.592 2.18319 116.808 2.38514 116.84 2.56158C116.998 3.41188 117.104 4.27281 117.218 5.13162C117.236 5.25916 117.208 5.39521 117.097 5.55252C117.035 5.4441 116.972 5.33569 116.907 5.22727C116.507 4.55979 116.187 3.8264 115.692 3.23969C114.35 1.65388 111.917 1.52846 110.332 2.88894C109.271 3.79877 108.746 4.98706 108.601 6.32629C108.45 7.73354 108.582 9.11528 109.245 10.412C110.596 13.0564 114.054 13.9535 116.289 12.187C116.821 11.7682 117.214 11.1815 117.672 10.6713L117.67 10.6756Z" fill="white"/>
<path d="M96.0264 14.3105H92.0646C92.1943 14.1745 92.2527 14.0533 92.3326 14.0384C92.7649 13.9662 92.8751 13.6856 92.8751 13.3093C92.8773 11.5747 92.8946 9.83794 92.8773 8.10332C92.8751 7.85461 92.7454 7.59739 92.6309 7.36356C92.5077 7.11272 92.3348 6.88739 92.1662 6.6238C93.2317 6.20502 94.2562 5.80325 95.3455 5.37598V6.70032C95.8686 6.39209 96.316 6.10299 96.7872 5.86277C97.12 5.69271 97.4745 5.53966 97.8397 5.46313C99.2489 5.17403 100.425 6.14975 100.446 7.62503C100.472 9.46593 100.479 11.309 100.479 13.1499C100.479 13.6175 100.537 14.0044 101.121 14.0639C101.157 14.0682 101.183 14.1702 101.244 14.2829H97.2951C97.3102 14.1872 97.3102 14.1256 97.321 14.1235C97.9824 13.9874 98.0364 13.5112 98.0278 12.9671C98.0126 11.7447 98.0386 10.5224 98.0126 9.30012C98.004 8.88135 97.9456 8.44982 97.8268 8.04805C97.5177 7.00856 96.6531 6.60254 95.633 7.00005C95.4947 7.0532 95.3282 7.26152 95.3282 7.3997C95.3196 9.38303 95.3391 11.3664 95.3434 13.3497C95.3434 13.7089 95.4277 13.9768 95.8513 14.0257C95.9313 14.0342 96.0004 14.1298 96.0739 14.1851L96.0285 14.3084L96.0264 14.3105Z" fill="white"/>
<path d="M48.9393 6.11356C50.0589 5.92012 51.1806 5.7288 52.3499 5.52686C52.3499 5.92862 52.3542 6.29425 52.3499 6.66201C52.3283 8.57306 52.3045 10.4841 52.2851 12.3952C52.2808 12.9415 52.2483 13.5154 53.1388 13.5091L53.0675 13.6579C52.0041 13.9491 50.9407 14.2425 49.8082 14.5528C49.8255 14.1702 49.8406 13.8131 49.86 13.3964C49.4148 13.6451 49.0323 13.9045 48.6108 14.0809C48.1353 14.2786 47.636 14.4657 47.1303 14.5401C46.1036 14.6889 45.1937 13.9789 44.9538 12.8947C44.8825 12.5695 44.8587 12.2272 44.8565 11.8935C44.8457 10.4076 44.8328 8.91956 44.8609 7.43366C44.8717 6.86183 44.7398 6.46006 44.1109 6.3474C44.0439 6.33464 43.9812 6.29213 43.9164 6.26449L43.9747 6.12844C45.0835 5.93287 46.1922 5.73518 47.3183 5.53748C47.3183 6.14332 47.3183 6.72153 47.3183 7.29974C47.3183 8.6092 47.3075 9.91867 47.3226 11.2281C47.327 11.5598 47.3767 11.8999 47.4696 12.2187C47.7333 13.1222 48.8788 13.5665 49.6958 13.0839C49.7995 13.0223 49.8773 12.831 49.8773 12.6992C49.8881 10.8944 49.886 9.08962 49.8838 7.28273C49.8838 6.79806 49.6828 6.47069 49.1663 6.37291C49.0755 6.3559 48.9977 6.2815 48.9134 6.23473L48.935 6.11144L48.9393 6.11356Z" fill="white"/>
<path d="M82.1635 5.42287C79.4424 5.41649 77.3372 7.40407 77.3134 9.99962C77.2897 12.5123 79.3991 14.5381 82.0641 14.5615C84.7204 14.587 86.8968 12.508 86.9012 9.94222C86.9076 7.45722 84.7787 5.42924 82.1635 5.42287ZM83.7132 12.8035C83.6397 13.0798 83.4387 13.3434 83.2398 13.5645C82.5742 14.2979 81.5648 14.2596 80.9575 13.4774C80.3674 12.7206 80.1664 11.8214 80.0821 10.8967C79.9611 9.5851 79.9762 8.28201 80.5511 7.04907C80.8537 6.40071 81.2946 5.90541 82.0814 5.89691C82.8573 5.89053 83.2744 6.40497 83.5813 7.01293C84.072 7.98865 84.1973 9.03665 84.1692 10.1102C84.2146 10.1187 84.2622 10.1272 84.3075 10.1378C84.113 11.0264 83.9423 11.9234 83.7132 12.8035Z" fill="white"/>
<path d="M124.889 11.8639C124.906 10.412 124.956 8.96007 124.973 7.50818C124.986 6.53458 124.606 6.0074 123.679 5.64814C121.848 4.94027 119.453 6.06479 118.64 8.03324C118.545 8.26495 118.556 8.5413 118.517 8.79639C118.775 8.80064 119.038 8.84528 119.287 8.80064C120.158 8.64759 120.151 8.63696 120.052 7.78453C120.004 7.38701 119.987 6.98524 120.43 6.77054C121.297 6.35177 122.511 7.05539 122.548 7.9971C122.563 8.40525 122.524 8.81552 122.561 9.21941C122.594 9.58504 122.436 9.75723 122.112 9.89328C121.167 10.2865 120.214 10.6628 119.306 11.1262C118.135 11.7257 118.055 13.2647 119.107 14.0661C119.875 14.6507 120.921 14.6125 121.749 13.9556C122.01 13.7494 122.246 13.5156 122.527 13.2647C123.067 14.2766 123.899 14.6465 124.973 14.4254C125.693 14.2787 126.229 13.6176 126.324 12.8247C125.254 13.1988 124.876 12.9416 124.889 11.8639ZM122.494 12.7312C122.492 12.8332 122.326 12.9799 122.205 13.0224C121.725 13.1967 121.234 13.0309 120.973 12.6419C120.653 12.1657 120.683 11.4068 121.111 11.0348C121.506 10.6926 121.969 10.4247 122.509 10.0485C122.509 11.0476 122.518 11.8894 122.494 12.7312Z" fill="white"/>
<path d="M154.426 11.8319C154.441 10.3821 154.484 8.93238 154.502 7.48262C154.512 6.50477 154.145 5.99671 153.205 5.63959C151.251 4.8977 148.474 6.3836 148.054 8.39244C148.043 8.44558 148.009 8.51998 148.03 8.54549C148.136 8.66454 148.27 8.87498 148.37 8.86223C148.826 8.80909 149.273 8.69217 149.718 8.60076C149.667 8.20112 149.6 7.8695 149.584 7.53789C149.567 7.1595 149.68 6.83426 150.108 6.71734C151.132 6.43887 152.107 7.14462 152.122 8.18411C152.128 8.48385 152.092 8.78996 152.131 9.08543C152.195 9.55523 151.979 9.76355 151.556 9.93786C150.579 10.3354 149.617 10.7775 148.666 11.2346C148.206 11.4557 147.933 11.8383 147.92 12.3761C147.899 13.186 148.171 13.8429 148.921 14.2298C149.69 14.623 150.455 14.5635 151.158 14.0576C151.48 13.8259 151.763 13.541 152.07 13.2774C152.759 14.3212 153.643 14.7102 154.588 14.4126C155.325 14.1809 155.861 13.5028 155.844 12.8289C154.813 13.2094 154.413 12.9373 154.426 11.8319ZM152.035 12.7226C152.031 12.8289 151.873 12.9798 151.752 13.0223C151.281 13.1966 150.788 13.0308 150.52 12.6397C150.216 12.1975 150.207 11.4769 150.594 11.1155C151.004 10.735 151.493 10.4374 152.048 10.0314C152.048 11.0411 152.057 11.8829 152.035 12.7226Z" fill="white"/>
<path d="M155.887 1.1713C157.058 0.812048 158.133 0.48043 159.248 0.138184C159.248 0.754653 159.25 1.33286 159.248 1.91106C159.231 5.48658 159.211 9.0621 159.196 12.6376C159.196 12.8311 159.231 13.0266 159.231 13.2201C159.228 13.641 159.293 14.0045 159.827 14.0598C159.87 14.064 159.905 14.1575 160.002 14.2872H156.006C156.081 14.183 156.129 14.0576 156.19 14.0491C156.726 13.9832 156.784 13.607 156.786 13.1946C156.788 9.6722 156.795 6.14982 156.775 2.62744C156.775 2.37023 156.613 2.09813 156.473 1.8643C156.33 1.62834 156.116 1.43489 155.891 1.17343L155.887 1.1713Z" fill="white"/>
<path d="M53.4976 1.17338C54.6863 0.807754 55.7605 0.476137 56.8844 0.129639C56.8844 0.303951 56.8844 0.422993 56.8844 0.544161C56.8563 4.57884 56.8304 8.61353 56.8045 12.6503C56.8045 12.8629 56.8239 13.0734 56.8326 13.2859C56.8477 13.6622 56.9039 14.0002 57.3967 14.0406C57.4615 14.0448 57.5155 14.1702 57.6323 14.3084H53.6381C53.7072 14.1958 53.744 14.0618 53.8002 14.0555C54.334 13.9832 54.3902 13.6027 54.3902 13.1945C54.3946 9.67215 54.4032 6.14978 54.3794 2.6274C54.3794 2.34255 54.1655 2.04707 54.0077 1.78135C53.8866 1.57728 53.6986 1.41147 53.4976 1.17764V1.17338Z" fill="white"/>
<path d="M57.9327 6.42202C59.0631 5.55046 60.1459 4.71716 61.2676 3.84985V5.67375H64.2135C64.0644 6.62609 63.8396 6.81953 62.9383 6.78127C62.4347 6.76001 61.9311 6.7345 61.4276 6.71537C61.3778 6.71537 61.326 6.73875 61.2049 6.77064C61.2049 7.19792 61.2049 7.6337 61.2049 8.06948C61.2049 9.29179 61.2006 10.5141 61.2049 11.7364C61.2071 12.5144 61.501 12.8673 62.2964 12.8588C62.9751 12.8524 63.6516 12.6972 64.3454 12.6058C63.8374 13.522 63.055 14.1959 61.9528 14.4425C61.5097 14.5403 61.0212 14.5296 60.5673 14.4659C59.3894 14.3001 58.7691 13.5709 58.7626 12.3911C58.7518 10.9201 58.7388 9.45122 58.7734 7.9802C58.7864 7.45939 58.6805 7.05337 58.2417 6.74513C58.1294 6.66648 58.0472 6.54318 57.9283 6.41777L57.9327 6.42202Z" fill="white"/>
<path d="M147.624 12.6036C146.878 14.0576 145.292 14.8101 143.658 14.4466C142.69 14.2319 142.08 13.5134 142.072 12.5121C142.057 11.0092 142.046 9.5042 142.08 8.0013C142.091 7.48474 141.994 7.07659 141.559 6.76198C141.434 6.6727 141.343 6.53665 141.233 6.41548C142.34 5.56093 143.42 4.72976 144.536 3.8667V5.66934H147.494C147.402 6.56641 147.123 6.81725 146.256 6.78111C145.701 6.75773 145.147 6.72584 144.529 6.69395C144.512 6.90228 144.486 7.07021 144.486 7.23815C144.484 8.72405 144.479 10.21 144.486 11.6959C144.488 12.5207 144.806 12.882 145.653 12.865C146.314 12.8501 146.971 12.695 147.624 12.6036Z" fill="white"/>
<path d="M76.8833 11.9872C76.4748 13.2967 75.5779 14.1236 74.2746 14.4255C72.7249 14.7847 71.333 14.4106 70.248 13.2287C68.2942 11.105 69.0895 7.41896 71.789 6.00108C73.0059 5.36336 74.2768 5.19967 75.5909 5.66521C76.0901 5.84165 76.5289 6.12013 76.7061 6.66644C76.8574 7.12986 76.691 7.58052 76.2782 7.8016C75.8632 8.0248 75.2926 7.92277 75.0203 7.54013C74.8582 7.31055 74.7479 7.0427 74.6247 6.78761C74.2335 5.97983 73.5397 5.74387 72.8459 6.32207C72.4007 6.69195 71.9879 7.22127 71.8171 7.75908C71.3892 9.10469 71.4757 10.4588 72.3121 11.6705C73.3193 13.133 75.3661 13.3371 76.6888 12.136C76.7493 12.0807 76.8185 12.034 76.8833 11.9851V11.9872Z" fill="white"/>
<path d="M87.7138 6.57697C88.68 6.19858 89.7023 5.79894 90.7505 5.38867C90.7505 6.92984 90.7505 8.42638 90.7505 9.92291C90.7505 10.9837 90.7635 12.0444 90.7484 13.1052C90.7419 13.5877 90.7786 14.0001 91.3968 14.0618C91.4378 14.066 91.4724 14.1617 91.561 14.2892H87.5258C87.5971 14.1829 87.6317 14.0681 87.6814 14.0618C88.2326 13.9937 88.2974 13.6302 88.2952 13.1796C88.2888 11.5342 88.3493 9.8889 88.2823 8.24781C88.2607 7.70362 87.9256 7.17218 87.7138 6.57697Z" fill="white"/>
<path d="M137.016 6.58554C138.017 6.1944 139.041 5.79476 140.077 5.39087C140.077 6.60042 140.075 7.76534 140.077 8.93238C140.081 10.3673 140.1 11.8021 140.096 13.237C140.096 13.6749 140.17 14.0151 140.704 14.0512C140.749 14.0554 140.79 14.1426 140.911 14.2787H136.852C136.943 14.1724 136.995 14.0576 137.062 14.0469C137.544 13.9683 137.643 13.6516 137.643 13.2349C137.637 11.5343 137.688 9.83157 137.617 8.13522C137.595 7.62929 137.241 7.13824 137.016 6.58979V6.58554Z" fill="white"/>
<path d="M64.6934 6.62809C65.7784 6.20294 66.8028 5.80117 67.8662 5.38452C67.8662 5.65024 67.8662 5.87132 67.8662 6.0924C67.8619 8.39459 67.8619 10.6947 67.8489 12.9969C67.8468 13.5134 67.8424 14.0087 68.5405 14.0916C68.5622 14.0937 68.5751 14.183 68.6119 14.2914H64.6631C64.7258 14.1937 64.7668 14.0619 64.8252 14.0534C65.318 13.9811 65.398 13.6601 65.398 13.2456C65.398 11.5811 65.4304 9.91663 65.4066 8.25429C65.4023 7.92267 65.2315 7.58468 65.0975 7.26582C65.0046 7.04686 64.8403 6.85767 64.6934 6.63021V6.62809Z" fill="white"/>
<path d="M89.6396 1.20751C90.4285 1.23089 90.9667 1.83036 90.9386 2.64877C90.9105 3.40129 90.301 3.96249 89.5294 3.94336C88.7427 3.92423 88.1699 3.30988 88.198 2.51698C88.2239 1.73045 88.8269 1.18413 89.6396 1.20751Z" fill="white"/>
<path d="M68.0391 2.5423C68.0478 3.34796 67.4815 3.93467 66.6904 3.94317C65.8929 3.95168 65.3137 3.3756 65.3115 2.57206C65.3093 1.79191 65.8626 1.22221 66.6364 1.20733C67.4534 1.19245 68.0326 1.74089 68.0413 2.5423H68.0391Z" fill="white"/>
<path d="M137.537 2.58501C137.531 1.77935 138.095 1.20965 138.901 1.20752C139.692 1.20752 140.243 1.74534 140.256 2.53187C140.269 3.34816 139.72 3.93274 138.925 3.94549C138.127 3.95825 137.541 3.38642 137.535 2.58713L137.537 2.58501Z" fill="white"/>
</g>
<defs>
<clipPath id="clip0_2_301">
<rect width="160" height="19" fill="white"/>
</clipPath>
</defs>
</svg>
