<svg width="93" height="22" viewBox="0 0 93 22" fill="none" xmlns="http://www.w3.org/2000/svg">
<g opacity="0.75">
<path d="M10.6407 0C4.76492 0 0 4.9258 0 11C0 17.0742 4.76492 22 10.6407 22C16.5165 22 21.2815 17.0742 21.2815 11C21.2815 4.9258 16.5187 0 10.6407 0ZM5.25014 11.3696L5.29483 11.2948L8.06355 6.8178C8.10398 6.754 8.19975 6.7606 8.22954 6.831C8.69135 7.9024 9.09144 9.2356 8.90416 10.065C8.82542 10.406 8.60622 10.868 8.35936 11.2948C8.32744 11.3564 8.29339 11.418 8.25508 11.4774C8.23805 11.5038 8.20826 11.5192 8.17634 11.5192H5.33101C5.25439 11.5192 5.2097 11.4334 5.25014 11.3696ZM17.587 12.9096C17.587 12.9514 17.5636 12.9866 17.5295 13.002C17.3146 13.0966 16.5804 13.4464 16.2761 13.8842C15.4972 15.004 14.9034 16.6056 13.5733 16.6056H8.02737C6.06096 16.6056 4.46911 14.9534 4.46911 12.914V12.848C4.46911 12.7952 4.51167 12.7512 4.56487 12.7512H7.65494C7.71666 12.7512 7.76135 12.8084 7.75709 12.8722C7.73368 13.079 7.77199 13.2924 7.86776 13.486C8.05078 13.871 8.43172 14.1108 8.84245 14.1108H10.3726V12.8766H8.85947C8.78286 12.8766 8.73604 12.7842 8.78073 12.7182C8.79776 12.6918 8.81478 12.6654 8.83606 12.6346C8.97865 12.4234 9.18295 12.0978 9.38725 11.726C9.52558 11.4752 9.65966 11.2068 9.76819 10.9384C9.78947 10.89 9.8065 10.8394 9.82565 10.791C9.85544 10.7052 9.88524 10.6238 9.90652 10.5446C9.9278 10.4764 9.94696 10.406 9.96398 10.34C10.0151 10.1112 10.0363 9.8692 10.0363 9.6184C10.0363 9.5194 10.0321 9.416 10.0236 9.3192C10.0193 9.2114 10.0065 9.1036 9.99377 8.9958C9.98526 8.9012 9.96824 8.8066 9.95121 8.7098C9.9278 8.5668 9.89801 8.4238 9.86396 8.2808L9.85119 8.2258C9.82565 8.1268 9.80224 8.0344 9.77245 7.9354C9.68519 7.6274 9.5873 7.326 9.48089 7.0444C9.44258 6.9322 9.40002 6.8244 9.35533 6.7188C9.29149 6.556 9.22551 6.4086 9.16593 6.27C9.134 6.2062 9.10847 6.149 9.08293 6.0896C9.05313 6.0236 9.02334 5.9576 8.99142 5.8938C8.97014 5.8454 8.9446 5.7992 8.92757 5.7552L8.7403 5.3988C8.71476 5.3504 8.75732 5.291 8.8084 5.3064L9.97888 5.6342H9.98739L10.1406 5.6804L10.3109 5.7288L10.3726 5.7464V5.0292C10.3726 4.6816 10.6407 4.4 10.9749 4.4C11.1408 4.4 11.2919 4.4704 11.3984 4.5848C11.5069 4.6992 11.575 4.8554 11.575 5.0292V6.0962L11.7005 6.1314C11.7005 6.1314 11.7197 6.1402 11.7282 6.1468C11.758 6.1688 11.8027 6.204 11.858 6.248C11.9027 6.2832 11.9495 6.3272 12.0049 6.3734C12.1177 6.468 12.2539 6.589 12.4007 6.7276C12.439 6.7628 12.4773 6.798 12.5135 6.8354C12.7029 7.018 12.9157 7.2314 13.12 7.469C13.1775 7.5372 13.2328 7.6032 13.2903 7.6758C13.3456 7.7484 13.4073 7.8188 13.4584 7.8892C13.5286 7.9838 13.601 8.0828 13.667 8.1862C13.6967 8.2346 13.7329 8.2852 13.7606 8.3336C13.8457 8.4634 13.9181 8.5976 13.9883 8.7318C14.0181 8.7934 14.0479 8.8616 14.0734 8.9276C14.1522 9.108 14.2139 9.2906 14.2522 9.4754C14.265 9.515 14.2735 9.5568 14.2777 9.5964V9.6052C14.2905 9.658 14.2948 9.7152 14.299 9.7746C14.316 9.9616 14.3075 10.1508 14.2692 10.34C14.2522 10.4192 14.2309 10.494 14.2054 10.5754C14.1777 10.6524 14.1522 10.7316 14.1181 10.8086C14.0521 10.9648 13.9755 11.1232 13.884 11.2684C13.8542 11.3234 13.8181 11.3806 13.784 11.4356C13.7457 11.4928 13.7053 11.5478 13.6712 11.6006C13.6223 11.6688 13.5712 11.7392 13.518 11.803C13.4712 11.869 13.4243 11.935 13.3711 11.9944C13.2988 12.0846 13.2286 12.1682 13.1541 12.2496C13.1115 12.3024 13.0647 12.3574 13.0157 12.4058C12.9689 12.4608 12.92 12.5092 12.8774 12.5532C12.8029 12.6302 12.7433 12.6874 12.6923 12.738L12.571 12.8502C12.5539 12.8678 12.5305 12.8766 12.5071 12.8766H11.575V14.1108H12.7476C13.0094 14.1108 13.2584 14.0162 13.4605 13.838C13.5286 13.7764 13.8287 13.508 14.1841 13.1032C14.1969 13.0878 14.2118 13.079 14.2288 13.0746L17.4657 12.1066C17.5274 12.089 17.587 12.1352 17.587 12.2012V12.9096Z" fill="white"/>
<path d="M36.1828 8.35788C35.7273 7.56368 35.0953 6.94328 34.2887 6.49888C33.4928 6.05228 32.6117 5.83008 31.6498 5.83008C30.6879 5.83008 29.8047 6.05228 28.9981 6.49888C28.2001 6.94328 27.5638 7.56368 27.0892 8.35788C26.6231 9.15428 26.389 10.0497 26.389 11.0485C26.389 12.0473 26.6231 12.9471 27.0892 13.7501C27.5638 14.5443 28.2001 15.1647 28.9981 15.6113C29.8047 16.0557 30.6879 16.2801 31.6498 16.2801C32.6117 16.2801 33.4928 16.0557 34.2887 15.6113C35.0846 15.1647 35.7167 14.5443 36.1828 13.7501C36.6488 12.9471 36.8829 12.0451 36.8829 11.0485C36.8829 10.0519 36.6488 9.15428 36.1828 8.35788ZM33.6035 13.1979C33.1182 13.7413 32.467 14.0119 31.6498 14.0119C30.8326 14.0119 30.1644 13.7457 29.6685 13.2133C29.1833 12.6699 28.9407 11.9483 28.9407 11.0485C28.9407 10.1487 29.1833 9.41388 29.6685 8.88148C30.1644 8.34908 30.8241 8.08288 31.6498 8.08288C32.4755 8.08288 33.1182 8.35348 33.6035 8.89688C34.0993 9.42928 34.3462 10.1465 34.3462 11.0485C34.3462 11.9505 34.0993 12.6567 33.6035 13.1979Z" fill="white"/>
<path d="M40.7625 9.21568C41.0051 8.83728 41.3414 8.53368 41.7691 8.30048C42.1969 8.06728 42.697 7.95068 43.2695 7.95068C43.9398 7.95068 44.5464 8.12008 45.0912 8.45888C45.636 8.79768 46.0616 9.28168 46.3744 9.91308C46.6958 10.5423 46.8554 11.2749 46.8554 12.1087C46.8554 12.9425 46.6958 13.6773 46.3744 14.3175C46.0637 14.9467 45.636 15.4373 45.0912 15.7849C44.5464 16.1237 43.9398 16.2931 43.2695 16.2931C42.7055 16.2931 42.2054 16.1765 41.7691 15.9433C41.3414 15.7101 41.0072 15.4109 40.7625 15.0413V18.5877H38.2704V8.06728H40.7625V9.21568ZM44.3186 12.1087C44.3186 11.4883 44.1441 11.0043 43.793 10.6545C43.4525 10.2959 43.0311 10.1177 42.5246 10.1177C42.0181 10.1177 41.6074 10.2959 41.2562 10.6545C40.9157 11.0131 40.7455 11.5015 40.7455 12.1219C40.7455 12.7423 40.9157 13.2307 41.2562 13.5893C41.6053 13.9479 42.0288 14.1261 42.5246 14.1261C43.0205 14.1261 43.4418 13.9479 43.793 13.5893C44.142 13.2219 44.3186 12.7269 44.3186 12.1065V12.1087Z" fill="white"/>
<path d="M55.8278 11.9923C55.8278 12.2255 55.8129 12.4675 55.7831 12.7183H50.1435C50.1818 13.2221 50.3435 13.6093 50.6245 13.8799C50.916 14.1417 51.2714 14.2715 51.6885 14.2715C52.3099 14.2715 52.742 14.0097 52.9867 13.4861H55.6384C55.5022 14.0185 55.2553 14.4981 54.8956 14.9249C54.5466 15.3517 54.104 15.6861 53.5698 15.9281C53.0356 16.1701 52.4376 16.2911 51.7779 16.2911C50.982 16.2911 50.2712 16.1217 49.6498 15.7829C49.0283 15.4441 48.541 14.9601 48.192 14.3287C47.843 13.6995 47.6685 12.9625 47.6685 12.1199C47.6685 11.2773 47.8387 10.5403 48.1792 9.91113C48.5282 9.28193 49.0156 8.79793 49.637 8.45693C50.2584 8.11813 50.9735 7.94873 51.78 7.94873C52.5866 7.94873 53.2676 8.11373 53.8784 8.44373C54.4913 8.77373 54.9659 9.24233 55.3064 9.85393C55.6554 10.4633 55.8299 11.1761 55.8299 11.9901L55.8278 11.9923ZM53.2783 11.3389C53.2783 10.9121 53.1335 10.5733 52.8398 10.3225C52.5483 10.0695 52.1844 9.94413 51.746 9.94413C51.3076 9.94413 50.9735 10.0651 50.6819 10.3071C50.401 10.5491 50.2244 10.8923 50.1563 11.3389H53.2761H53.2783Z" fill="white"/>
<path d="M62.0971 7.98145C63.0484 7.98145 63.8081 8.29165 64.3699 8.91205C64.9424 9.52145 65.2297 10.3662 65.2297 11.4398V16.1786H62.7525V11.7742C62.7525 11.2308 62.6121 10.8106 62.329 10.5092C62.0481 10.2078 61.6693 10.0582 61.1926 10.0582C60.7159 10.0582 60.3371 10.2078 60.0562 10.5092C59.7753 10.8106 59.6327 11.2308 59.6327 11.7742V16.1786H57.1406V8.06725H59.6327V9.14305C59.8859 8.78445 60.2264 8.50285 60.6521 8.30045C61.0798 8.08705 61.5608 7.98145 62.095 7.98145H62.0971Z" fill="white"/>
<path d="M70.6651 16.2801C69.9181 16.2801 69.2457 16.1591 68.654 15.9171C68.0624 15.6751 67.5857 15.3165 67.226 14.8413C66.877 14.3661 66.6919 13.7941 66.6727 13.1253H69.3244C69.3627 13.5037 69.4947 13.7941 69.7181 13.9965C69.9416 14.1901 70.2331 14.2869 70.5928 14.2869C70.9524 14.2869 71.2525 14.2055 71.4674 14.0405C71.6803 13.8667 71.7888 13.6291 71.7888 13.3277C71.7888 13.0747 71.7015 12.8679 71.527 12.7029C71.361 12.5379 71.1525 12.4015 70.8992 12.2959C70.6566 12.1903 70.3055 12.0693 69.8501 11.9329C69.1882 11.7305 68.6498 11.5259 68.2327 11.3235C67.8155 11.1211 67.4559 10.8197 67.1537 10.4215C66.8515 10.0233 66.7025 9.50628 66.7025 8.86608C66.7025 7.91568 67.0473 7.17648 67.7368 6.64188C68.4263 6.09848 69.3244 5.82788 70.4332 5.82788C71.5419 5.82788 72.4698 6.09848 73.1593 6.64188C73.8488 7.17428 74.2191 7.92008 74.2681 8.87928H71.5717C71.5526 8.54928 71.4313 8.29408 71.2078 8.10928C70.9844 7.91568 70.6971 7.81888 70.348 7.81888C70.0458 7.81888 69.8032 7.90028 69.6202 8.06528C69.4351 8.21928 69.3436 8.44808 69.3436 8.74728C69.3436 9.07728 69.4989 9.33248 69.8096 9.51728C70.1203 9.70208 70.6055 9.90008 71.2674 10.1135C71.9293 10.3357 72.4634 10.5491 72.8699 10.7537C73.287 10.9561 73.6467 11.2531 73.9489 11.6403C74.2511 12.0275 74.4 12.5269 74.4 13.1363C74.4 13.7457 74.2489 14.2451 73.9489 14.7203C73.6573 15.1955 73.2296 15.5739 72.6656 15.8533C72.1016 16.1349 71.4355 16.2757 70.6694 16.2757L70.6651 16.2801Z" fill="white"/>
<path d="M83.5958 11.9923C83.5958 12.2255 83.5809 12.4675 83.5512 12.7183H77.9116C77.9499 13.2221 78.1116 13.6093 78.3925 13.8799C78.6841 14.1417 79.0395 14.2715 79.4566 14.2715C80.078 14.2715 80.51 14.0097 80.7548 13.4861H83.4064C83.2702 14.0185 83.0234 14.4981 82.6637 14.9249C82.3147 15.3517 81.872 15.6861 81.3379 15.9281C80.8037 16.1701 80.2057 16.2911 79.546 16.2911C78.75 16.2911 78.0392 16.1217 77.4178 15.7829C76.7964 15.4441 76.3112 14.9601 75.96 14.3287C75.611 13.6995 75.4365 12.9625 75.4365 12.1199C75.4365 11.2773 75.6068 10.5403 75.9473 9.91113C76.2963 9.28193 76.7836 8.79793 77.4051 8.45693C78.0265 8.11593 78.7415 7.94873 79.5481 7.94873C80.3547 7.94873 81.0357 8.11373 81.6465 8.44373C82.2594 8.77373 82.7339 9.24233 83.0744 9.85393C83.4235 10.4633 83.6001 11.1761 83.6001 11.9901L83.5958 11.9923ZM81.0463 11.3389C81.0463 10.9121 80.9016 10.5733 80.6101 10.3225C80.3185 10.0717 79.9546 9.94413 79.5162 9.94413C79.0778 9.94413 78.7437 10.0651 78.4521 10.3071C78.1712 10.5491 77.9946 10.8923 77.9286 11.3389H81.0484H81.0463Z" fill="white"/>
<path d="M84.415 12.1087C84.415 11.2749 84.5704 10.5445 84.8811 9.91308C85.2025 9.28388 85.6345 8.79988 86.1793 8.45888C86.7241 8.11788 87.3306 7.95068 88.001 7.95068C88.5734 7.95068 89.0736 8.06728 89.5013 8.30048C89.9376 8.53368 90.2738 8.83728 90.5079 9.21568V8.06728H93V16.1765H90.5079V15.0281C90.2653 15.4065 89.9248 15.7101 89.4885 15.9433C89.0608 16.1765 88.5607 16.2931 87.9882 16.2931C87.3263 16.2931 86.7262 16.1237 86.1814 15.7849C85.6366 15.4351 85.2046 14.9467 84.8832 14.3175C84.5725 13.6773 84.4172 12.9425 84.4172 12.1087H84.415ZM90.5079 12.1241C90.5079 11.5037 90.3334 11.0153 89.9844 10.6567C89.6439 10.2981 89.2268 10.1199 88.7309 10.1199C88.2351 10.1199 87.8116 10.2981 87.4625 10.6567C87.122 11.0065 86.9518 11.4905 86.9518 12.1109C86.9518 12.7313 87.122 13.2241 87.4625 13.5937C87.8116 13.9523 88.2351 14.1305 88.7309 14.1305C89.2268 14.1305 89.6439 13.9523 89.9844 13.5937C90.3334 13.2351 90.5079 12.7467 90.5079 12.1263V12.1241Z" fill="white"/>
</g>
</svg>
