<svg width="18" height="19" viewBox="0 0 18 19" fill="none" xmlns="http://www.w3.org/2000/svg">
<path d="M8.4375 12.625V9.8125H5.625C5.30859 9.8125 5.0625 9.56641 5.0625 9.25C5.0625 8.96875 5.30859 8.6875 5.625 8.6875H8.4375V5.875C8.4375 5.59375 8.68359 5.3125 9 5.3125C9.28125 5.3125 9.5625 5.59375 9.5625 5.875V8.6875H12.375C12.6562 8.6875 12.9375 8.96875 12.9375 9.25C12.9375 9.56641 12.6562 9.8125 12.375 9.8125H9.5625V12.625C9.5625 12.9414 9.28125 13.1875 9 13.1875C8.68359 13.1875 8.4375 12.9414 8.4375 12.625ZM18 9.25C18 14.2422 13.957 18.25 9 18.25C4.00781 18.25 0 14.2422 0 9.25C0 4.29297 4.00781 0.25 9 0.25C13.957 0.25 18 4.29297 18 9.25ZM9 1.375C4.64062 1.375 1.125 4.92578 1.125 9.25C1.125 13.6094 4.64062 17.125 9 17.125C13.3242 17.125 16.875 13.6094 16.875 9.25C16.875 4.92578 13.3242 1.375 9 1.375Z" fill="#5538CD"/>
</svg>
